<svg width="490" height="76" viewBox="0 0 490 76" fill="none" xmlns="http://www.w3.org/2000/svg">
<line x1="27" y1="38.5" x2="463" y2="38.5" stroke="white"/>
<circle cx="133.5" cy="38.5" r="7.5" fill="#D9D9D9"/>
<circle cx="297.5" cy="38.5" r="7.5" fill="#D9D9D9"/>
<circle cx="70.5" cy="38.5" r="7.5" fill="#D9D9D9"/>
<circle cx="219.5" cy="38.5" r="7.5" fill="#D9D9D9"/>
<path d="M279.959 58.5455C279.916 58.1856 279.743 57.9062 279.44 57.7074C279.137 57.5085 278.765 57.4091 278.325 57.4091C278.003 57.4091 277.721 57.4612 277.48 57.5653C277.241 57.6695 277.054 57.8127 276.919 57.995C276.786 58.1773 276.72 58.3845 276.72 58.6165C276.72 58.8106 276.766 58.9775 276.858 59.1172C276.953 59.2545 277.074 59.3693 277.221 59.4616C277.367 59.5516 277.521 59.6262 277.682 59.6854C277.843 59.7422 277.991 59.7884 278.126 59.8239L278.865 60.0227C279.054 60.0724 279.265 60.1411 279.497 60.2287C279.731 60.3163 279.955 60.4358 280.168 60.5874C280.383 60.7365 280.561 60.9283 280.701 61.1626C280.84 61.397 280.91 61.6847 280.91 62.0256C280.91 62.4186 280.807 62.7737 280.601 63.0909C280.398 63.4081 280.099 63.6603 279.706 63.8473C279.316 64.0343 278.841 64.1278 278.282 64.1278C277.762 64.1278 277.311 64.0438 276.929 63.8757C276.551 63.7076 276.252 63.4732 276.035 63.1726C275.819 62.8719 275.697 62.5227 275.669 62.125H276.578C276.602 62.3996 276.694 62.6269 276.855 62.8068C277.018 62.9844 277.224 63.117 277.473 63.2045C277.724 63.2898 277.994 63.3324 278.282 63.3324C278.619 63.3324 278.92 63.2779 279.188 63.169C279.455 63.0578 279.667 62.9039 279.824 62.7074C279.98 62.5085 280.058 62.2765 280.058 62.0114C280.058 61.7699 279.991 61.5734 279.856 61.4219C279.721 61.2704 279.543 61.1473 279.323 61.0526C279.103 60.9579 278.865 60.875 278.609 60.804L277.714 60.5483C277.146 60.3849 276.696 60.1518 276.365 59.8487C276.033 59.5457 275.868 59.1491 275.868 58.6591C275.868 58.2519 275.978 57.8968 276.198 57.5938C276.42 57.2884 276.719 57.0516 277.093 56.8835C277.469 56.7131 277.889 56.6278 278.353 56.6278C278.822 56.6278 279.239 56.7119 279.603 56.88C279.968 57.0457 280.257 57.273 280.47 57.5618C280.685 57.8506 280.799 58.1785 280.811 58.5455H279.959ZM287.131 56.7273H288.012V61.5426C288.012 62.0398 287.894 62.4837 287.66 62.8743C287.428 63.2625 287.1 63.5691 286.676 63.794C286.253 64.0166 285.755 64.1278 285.185 64.1278C284.614 64.1278 284.117 64.0166 283.693 63.794C283.27 63.5691 282.941 63.2625 282.706 62.8743C282.474 62.4837 282.358 62.0398 282.358 61.5426V56.7273H283.239V61.4716C283.239 61.8267 283.317 62.1428 283.473 62.4197C283.63 62.6944 283.852 62.911 284.141 63.0696C284.432 63.2259 284.78 63.304 285.185 63.304C285.59 63.304 285.938 63.2259 286.229 63.0696C286.52 62.911 286.743 62.6944 286.897 62.4197C287.053 62.1428 287.131 61.8267 287.131 61.4716V56.7273ZM289.77 64V56.7273H292.228C292.798 56.7273 293.265 56.8303 293.627 57.0362C293.991 57.2398 294.261 57.5156 294.437 57.8636C294.612 58.2116 294.699 58.5999 294.699 59.0284C294.699 59.4569 294.612 59.8464 294.437 60.1967C294.264 60.5471 293.996 60.8265 293.634 61.0348C293.272 61.2408 292.808 61.3438 292.242 61.3438H290.481V60.5625H292.214C292.604 60.5625 292.918 60.495 293.155 60.3601C293.391 60.2251 293.563 60.0429 293.669 59.8132C293.778 59.5812 293.833 59.3196 293.833 59.0284C293.833 58.7372 293.778 58.4768 293.669 58.2472C293.563 58.0175 293.39 57.8376 293.151 57.7074C292.912 57.5748 292.595 57.5085 292.199 57.5085H290.651V64H289.77ZM296.999 56.7273V64H296.118V56.7273H296.999ZM304.532 56.7273V64H303.679L299.716 58.2898H299.645V64H298.764V56.7273H299.617L303.594 62.4517H303.665V56.7273H304.532ZM306.294 64V56.7273H310.655V57.5085H307.174V59.9659H310.328V60.7472H307.174V64H306.294ZM318.299 60.3636C318.299 61.1307 318.161 61.7936 317.884 62.3523C317.607 62.911 317.227 63.3419 316.744 63.6449C316.261 63.9479 315.709 64.0994 315.089 64.0994C314.469 64.0994 313.917 63.9479 313.434 63.6449C312.951 63.3419 312.571 62.911 312.294 62.3523C312.017 61.7936 311.879 61.1307 311.879 60.3636C311.879 59.5966 312.017 58.9337 312.294 58.375C312.571 57.8163 312.951 57.3854 313.434 57.0824C313.917 56.7794 314.469 56.6278 315.089 56.6278C315.709 56.6278 316.261 56.7794 316.744 57.0824C317.227 57.3854 317.607 57.8163 317.884 58.375C318.161 58.9337 318.299 59.5966 318.299 60.3636ZM317.447 60.3636C317.447 59.7339 317.342 59.2024 317.131 58.7692C316.923 58.3359 316.64 58.008 316.282 57.7855C315.927 57.563 315.529 57.4517 315.089 57.4517C314.649 57.4517 314.25 57.563 313.892 57.7855C313.537 58.008 313.254 58.3359 313.044 58.7692C312.835 59.2024 312.731 59.7339 312.731 60.3636C312.731 60.9934 312.835 61.5249 313.044 61.9581C313.254 62.3913 313.537 62.7192 313.892 62.9418C314.25 63.1643 314.649 63.2756 315.089 63.2756C315.529 63.2756 315.927 63.1643 316.282 62.9418C316.64 62.7192 316.923 62.3913 317.131 61.9581C317.342 61.5249 317.447 60.9934 317.447 60.3636Z" fill="white"/>
<path d="M102.409 59H101.528C101.476 58.7467 101.385 58.5241 101.255 58.3324C101.127 58.1406 100.971 57.9796 100.786 57.8494C100.604 57.7169 100.401 57.6174 100.179 57.5511C99.9561 57.4848 99.7241 57.4517 99.4826 57.4517C99.0423 57.4517 98.6433 57.563 98.2859 57.7855C97.9308 58.008 97.6478 58.3359 97.4371 58.7692C97.2288 59.2024 97.1246 59.7339 97.1246 60.3636C97.1246 60.9934 97.2288 61.5249 97.4371 61.9581C97.6478 62.3913 97.9308 62.7192 98.2859 62.9418C98.6433 63.1643 99.0423 63.2756 99.4826 63.2756C99.7241 63.2756 99.9561 63.2424 100.179 63.1761C100.401 63.1098 100.604 63.0116 100.786 62.8814C100.971 62.7488 101.127 62.5866 101.255 62.3949C101.385 62.2008 101.476 61.9782 101.528 61.7273H102.409C102.342 62.099 102.222 62.4316 102.047 62.7251C101.871 63.0187 101.654 63.2685 101.393 63.4744C101.133 63.678 100.84 63.8331 100.516 63.9396C100.194 64.0462 99.8496 64.0994 99.4826 64.0994C98.8623 64.0994 98.3107 63.9479 97.8278 63.6449C97.3448 63.3419 96.9648 62.911 96.6879 62.3523C96.4109 61.7936 96.2724 61.1307 96.2724 60.3636C96.2724 59.5966 96.4109 58.9337 96.6879 58.375C96.9648 57.8163 97.3448 57.3854 97.8278 57.0824C98.3107 56.7794 98.8623 56.6278 99.4826 56.6278C99.8496 56.6278 100.194 56.6811 100.516 56.7876C100.84 56.8942 101.133 57.0504 101.393 57.2564C101.654 57.46 101.871 57.7086 102.047 58.0021C102.222 58.2933 102.342 58.6259 102.409 59ZM105.323 64.1278C104.978 64.1278 104.664 64.0627 104.382 63.9325C104.101 63.8 103.877 63.6094 103.711 63.3608C103.545 63.1098 103.463 62.8068 103.463 62.4517C103.463 62.1392 103.524 61.8859 103.647 61.6918C103.77 61.4953 103.935 61.3414 104.141 61.2301C104.347 61.1188 104.574 61.036 104.823 60.9815C105.074 60.9247 105.326 60.8797 105.579 60.8466C105.91 60.804 106.179 60.772 106.385 60.7507C106.593 60.727 106.745 60.688 106.84 60.6335C106.937 60.5791 106.985 60.4844 106.985 60.3494V60.321C106.985 59.9706 106.889 59.6984 106.698 59.5043C106.508 59.3101 106.221 59.2131 105.835 59.2131C105.435 59.2131 105.121 59.3007 104.894 59.4759C104.666 59.651 104.507 59.8381 104.414 60.0369L103.619 59.7528C103.761 59.4214 103.95 59.1634 104.187 58.9787C104.426 58.7917 104.686 58.6615 104.968 58.5881C105.252 58.5123 105.532 58.4744 105.806 58.4744C105.981 58.4744 106.183 58.4957 106.41 58.5384C106.64 58.5786 106.861 58.6626 107.074 58.7905C107.289 58.9183 107.468 59.1113 107.61 59.3693C107.752 59.6274 107.823 59.973 107.823 60.4062V64H106.985V63.2614H106.943C106.886 63.3797 106.791 63.5064 106.659 63.6413C106.526 63.7763 106.35 63.8911 106.129 63.9858C105.909 64.0805 105.641 64.1278 105.323 64.1278ZM105.451 63.375C105.783 63.375 106.062 63.3099 106.289 63.1797C106.519 63.0495 106.692 62.8814 106.808 62.6754C106.926 62.4695 106.985 62.2528 106.985 62.0256V61.2585C106.95 61.3011 106.872 61.3402 106.751 61.3757C106.633 61.4089 106.495 61.4384 106.339 61.4645C106.185 61.4882 106.035 61.5095 105.888 61.5284C105.744 61.545 105.626 61.5592 105.536 61.571C105.319 61.5994 105.115 61.6456 104.926 61.7095C104.739 61.7711 104.587 61.8646 104.471 61.9901C104.357 62.1132 104.301 62.2812 104.301 62.4943C104.301 62.7855 104.408 63.0057 104.624 63.1548C104.842 63.3016 105.117 63.375 105.451 63.375ZM109.353 64V58.5455H110.163V59.3977H110.234C110.347 59.1065 110.531 58.8804 110.784 58.7195C111.037 58.5561 111.342 58.4744 111.697 58.4744C112.057 58.4744 112.356 58.5561 112.595 58.7195C112.837 58.8804 113.025 59.1065 113.16 59.3977H113.217C113.356 59.116 113.566 58.8923 113.845 58.7266C114.125 58.5585 114.46 58.4744 114.85 58.4744C115.338 58.4744 115.737 58.6271 116.047 58.9325C116.357 59.2356 116.512 59.7079 116.512 60.3494V64H115.674V60.3494C115.674 59.947 115.564 59.6593 115.344 59.4865C115.124 59.3137 114.864 59.2273 114.566 59.2273C114.183 59.2273 113.885 59.3433 113.675 59.5753C113.464 59.8049 113.359 60.0961 113.359 60.4489V64H112.506V60.2642C112.506 59.9541 112.406 59.7043 112.205 59.5149C112.003 59.3232 111.744 59.2273 111.427 59.2273C111.209 59.2273 111.005 59.2853 110.816 59.4013C110.629 59.5173 110.478 59.6783 110.362 59.8842C110.248 60.0878 110.191 60.3234 110.191 60.5909V64H109.353ZM118.158 64V56.7273H118.996V59.4119H119.067C119.129 59.3172 119.214 59.1965 119.323 59.0497C119.434 58.9006 119.593 58.768 119.799 58.652C120.007 58.5336 120.289 58.4744 120.644 58.4744C121.103 58.4744 121.508 58.5893 121.858 58.8189C122.209 59.0485 122.482 59.3741 122.679 59.7955C122.875 60.2169 122.973 60.714 122.973 61.2869C122.973 61.8646 122.875 62.3653 122.679 62.7891C122.482 63.2105 122.21 63.5372 121.862 63.7692C121.514 63.9988 121.113 64.1136 120.658 64.1136C120.308 64.1136 120.027 64.0556 119.816 63.9396C119.606 63.8213 119.444 63.6875 119.33 63.5384C119.216 63.3868 119.129 63.2614 119.067 63.1619H118.968V64H118.158ZM118.982 61.2727C118.982 61.6847 119.042 62.0481 119.163 62.3629C119.284 62.6754 119.46 62.9205 119.692 63.098C119.924 63.2732 120.208 63.3608 120.544 63.3608C120.895 63.3608 121.187 63.2685 121.422 63.0838C121.658 62.8968 121.836 62.6458 121.954 62.331C122.075 62.0137 122.135 61.661 122.135 61.2727C122.135 60.8892 122.076 60.5436 121.958 60.2358C121.842 59.9257 121.665 59.6806 121.429 59.5007C121.194 59.3184 120.9 59.2273 120.544 59.2273C120.203 59.2273 119.917 59.3137 119.685 59.4865C119.453 59.657 119.278 59.8961 119.159 60.2038C119.041 60.5092 118.982 60.8655 118.982 61.2727ZM124.255 64V58.5455H125.065V59.3693H125.122C125.221 59.0994 125.401 58.8804 125.662 58.7124C125.922 58.5443 126.216 58.4602 126.542 58.4602C126.604 58.4602 126.681 58.4614 126.773 58.4638C126.865 58.4661 126.935 58.4697 126.983 58.4744V59.3267C126.954 59.3196 126.889 59.3089 126.787 59.2947C126.688 59.2782 126.583 59.2699 126.471 59.2699C126.206 59.2699 125.969 59.3255 125.761 59.4368C125.555 59.5457 125.392 59.6972 125.271 59.8913C125.153 60.0831 125.093 60.3021 125.093 60.5483V64H124.255ZM127.976 64V58.5455H128.814V64H127.976ZM128.402 57.6364C128.239 57.6364 128.098 57.5807 127.98 57.4695C127.864 57.3582 127.806 57.2244 127.806 57.0682C127.806 56.9119 127.864 56.7782 127.98 56.6669C128.098 56.5556 128.239 56.5 128.402 56.5C128.566 56.5 128.705 56.5556 128.821 56.6669C128.94 56.7782 128.999 56.9119 128.999 57.0682C128.999 57.2244 128.94 57.3582 128.821 57.4695C128.705 57.5807 128.566 57.6364 128.402 57.6364ZM132.409 64.1136C131.954 64.1136 131.553 63.9988 131.205 63.7692C130.857 63.5372 130.585 63.2105 130.388 62.7891C130.192 62.3653 130.093 61.8646 130.093 61.2869C130.093 60.714 130.192 60.2169 130.388 59.7955C130.585 59.3741 130.858 59.0485 131.208 58.8189C131.559 58.5893 131.964 58.4744 132.423 58.4744C132.778 58.4744 133.059 58.5336 133.265 58.652C133.473 58.768 133.632 58.9006 133.74 59.0497C133.852 59.1965 133.938 59.3172 134 59.4119H134.071V56.7273H134.909V64H134.099V63.1619H134C133.938 63.2614 133.85 63.3868 133.737 63.5384C133.623 63.6875 133.461 63.8213 133.25 63.9396C133.04 64.0556 132.759 64.1136 132.409 64.1136ZM132.522 63.3608C132.859 63.3608 133.143 63.2732 133.375 63.098C133.607 62.9205 133.783 62.6754 133.904 62.3629C134.025 62.0481 134.085 61.6847 134.085 61.2727C134.085 60.8655 134.026 60.5092 133.907 60.2038C133.789 59.8961 133.614 59.657 133.382 59.4865C133.15 59.3137 132.863 59.2273 132.522 59.2273C132.167 59.2273 131.871 59.3184 131.635 59.5007C131.4 59.6806 131.224 59.9257 131.105 60.2358C130.989 60.5436 130.931 60.8892 130.931 61.2727C130.931 61.661 130.991 62.0137 131.109 62.331C131.23 62.6458 131.407 62.8968 131.642 63.0838C131.878 63.2685 132.172 63.3608 132.522 63.3608ZM138.762 66.1591C138.357 66.1591 138.009 66.107 137.718 66.0028C137.426 65.901 137.184 65.7661 136.99 65.598C136.798 65.4323 136.645 65.2547 136.532 65.0653L137.199 64.5966C137.275 64.696 137.371 64.8097 137.487 64.9375C137.603 65.0677 137.761 65.1802 137.963 65.2749C138.166 65.3719 138.433 65.4205 138.762 65.4205C139.202 65.4205 139.565 65.3139 139.852 65.1009C140.138 64.8878 140.282 64.554 140.282 64.0994V62.9915H140.211C140.149 63.0909 140.061 63.214 139.948 63.3608C139.837 63.5052 139.676 63.6342 139.465 63.7479C139.257 63.8591 138.975 63.9148 138.62 63.9148C138.179 63.9148 137.784 63.8106 137.434 63.6023C137.086 63.3939 136.81 63.0909 136.606 62.6932C136.405 62.2955 136.304 61.8125 136.304 61.2443C136.304 60.6856 136.403 60.1991 136.599 59.7848C136.796 59.3681 137.069 59.0462 137.419 58.8189C137.77 58.5893 138.175 58.4744 138.634 58.4744C138.989 58.4744 139.271 58.5336 139.479 58.652C139.69 58.768 139.851 58.9006 139.962 59.0497C140.076 59.1965 140.163 59.3172 140.225 59.4119H140.31V58.5455H141.12V64.1562C141.12 64.625 141.013 65.0062 140.8 65.2997C140.589 65.5956 140.305 65.8123 139.948 65.9496C139.593 66.0893 139.197 66.1591 138.762 66.1591ZM138.733 63.1619C139.069 63.1619 139.354 63.085 139.586 62.9311C139.818 62.7772 139.994 62.5559 140.115 62.267C140.235 61.9782 140.296 61.6326 140.296 61.2301C140.296 60.8371 140.237 60.4903 140.118 60.1896C140 59.889 139.825 59.6534 139.593 59.483C139.361 59.3125 139.074 59.2273 138.733 59.2273C138.378 59.2273 138.082 59.3172 137.846 59.4972C137.611 59.6771 137.435 59.9186 137.316 60.2216C137.2 60.5246 137.142 60.8608 137.142 61.2301C137.142 61.6089 137.202 61.9439 137.32 62.2351C137.441 62.5239 137.618 62.7512 137.853 62.9169C138.089 63.0803 138.383 63.1619 138.733 63.1619ZM144.941 64.1136C144.415 64.1136 143.962 63.9976 143.581 63.7656C143.202 63.5312 142.909 63.2045 142.703 62.7855C142.5 62.3641 142.398 61.8741 142.398 61.3153C142.398 60.7566 142.5 60.2642 142.703 59.8381C142.909 59.4096 143.196 59.0758 143.563 58.8366C143.932 58.5952 144.363 58.4744 144.855 58.4744C145.14 58.4744 145.42 58.5218 145.697 58.6165C145.974 58.7112 146.226 58.8651 146.453 59.0781C146.681 59.2888 146.862 59.5682 146.997 59.9162C147.132 60.2642 147.199 60.6927 147.199 61.2017V61.5568H142.995V60.8324H146.347C146.347 60.5246 146.285 60.25 146.162 60.0085C146.042 59.767 145.869 59.5765 145.644 59.4368C145.421 59.2971 145.158 59.2273 144.855 59.2273C144.522 59.2273 144.233 59.3101 143.989 59.4759C143.748 59.6392 143.562 59.8523 143.431 60.1151C143.301 60.3778 143.236 60.6596 143.236 60.9602V61.4432C143.236 61.8551 143.307 62.2043 143.449 62.4908C143.594 62.7749 143.794 62.9915 144.049 63.1406C144.305 63.2874 144.602 63.3608 144.941 63.3608C145.161 63.3608 145.36 63.33 145.537 63.2685C145.717 63.2045 145.872 63.1098 146.002 62.9844C146.133 62.8565 146.233 62.6979 146.304 62.5085L147.114 62.7358C147.029 63.0104 146.886 63.2519 146.684 63.4602C146.483 63.6662 146.234 63.8272 145.939 63.9432C145.643 64.0568 145.31 64.1136 144.941 64.1136ZM151.585 60.3636C151.585 59.4687 151.701 58.6461 151.933 57.8956C152.167 57.1428 152.501 56.4503 152.934 55.8182H153.673C153.502 56.0526 153.343 56.3414 153.194 56.6847C153.047 57.0256 152.918 57.4008 152.806 57.8104C152.695 58.2176 152.608 58.639 152.544 59.0746C152.482 59.5102 152.451 59.9399 152.451 60.3636C152.451 60.9271 152.506 61.4988 152.615 62.0788C152.724 62.6589 152.87 63.1974 153.055 63.6946C153.24 64.1918 153.446 64.5966 153.673 64.9091H152.934C152.501 64.277 152.167 63.5857 151.933 62.8352C151.701 62.0824 151.585 61.2585 151.585 60.3636ZM155.023 64V56.7273H157.566C158.073 56.7273 158.49 56.8149 158.819 56.9901C159.148 57.1629 159.394 57.3961 159.555 57.6896C159.715 57.9808 159.796 58.304 159.796 58.6591C159.796 58.9716 159.74 59.2296 159.629 59.4332C159.52 59.6368 159.376 59.7978 159.196 59.9162C159.018 60.0346 158.825 60.1222 158.617 60.179V60.25C158.84 60.2642 159.063 60.3423 159.288 60.4844C159.513 60.6264 159.701 60.83 159.853 61.0952C160.004 61.3603 160.08 61.6847 160.08 62.0682C160.08 62.4328 159.997 62.7607 159.831 63.0518C159.666 63.343 159.404 63.5739 159.047 63.7443C158.689 63.9148 158.224 64 157.651 64H155.023ZM155.904 63.2188H157.651C158.226 63.2188 158.635 63.1075 158.876 62.8849C159.12 62.66 159.242 62.3878 159.242 62.0682C159.242 61.822 159.179 61.5947 159.054 61.3864C158.928 61.1757 158.75 61.0076 158.518 60.8821C158.286 60.7543 158.011 60.6903 157.694 60.6903H155.904V63.2188ZM155.904 59.9233H157.537C157.803 59.9233 158.042 59.8712 158.255 59.767C158.47 59.6629 158.641 59.5161 158.766 59.3267C158.894 59.1373 158.958 58.9148 158.958 58.6591C158.958 58.3395 158.847 58.0684 158.624 57.8459C158.402 57.621 158.049 57.5085 157.566 57.5085H155.904V59.9233ZM161.399 64V63.3608L163.8 60.733C164.082 60.4252 164.314 60.1577 164.496 59.9304C164.678 59.7008 164.813 59.4853 164.901 59.2841C164.991 59.0805 165.036 58.8674 165.036 58.6449C165.036 58.3892 164.974 58.1679 164.851 57.9808C164.73 57.7938 164.565 57.6494 164.354 57.5476C164.143 57.4458 163.906 57.3949 163.644 57.3949C163.364 57.3949 163.12 57.4529 162.912 57.5689C162.706 57.6825 162.546 57.8423 162.433 58.0483C162.321 58.2543 162.266 58.4957 162.266 58.7727H161.428C161.428 58.3466 161.526 57.9725 161.722 57.6506C161.919 57.3286 162.186 57.0777 162.525 56.8977C162.866 56.7178 163.248 56.6278 163.672 56.6278C164.098 56.6278 164.476 56.7178 164.805 56.8977C165.134 57.0777 165.392 57.3203 165.579 57.6257C165.766 57.9311 165.86 58.2708 165.86 58.6449C165.86 58.9124 165.811 59.174 165.714 59.4297C165.619 59.683 165.454 59.9659 165.217 60.2784C164.982 60.5885 164.657 60.9673 164.24 61.4148L162.607 63.1619V63.2188H165.987V64H161.399ZM169.258 60.3636C169.258 61.2585 169.141 62.0824 168.906 62.8352C168.674 63.5857 168.342 64.277 167.909 64.9091H167.17C167.34 64.6747 167.499 64.3859 167.646 64.0426C167.795 63.7017 167.925 63.3277 168.036 62.9205C168.148 62.5109 168.234 62.0883 168.296 61.6527C168.36 61.2147 168.392 60.785 168.392 60.3636C168.392 59.8002 168.337 59.2285 168.228 58.6484C168.119 58.0684 167.972 57.5298 167.788 57.0327C167.603 56.5355 167.397 56.1307 167.17 55.8182H167.909C168.342 56.4503 168.674 57.1428 168.906 57.8956C169.141 58.6461 169.258 59.4687 169.258 60.3636Z" fill="white"/>
<path d="M172.581 20V12.7273H176.97V13.5085H173.462V15.9659H176.743V16.7472H173.462V19.2188H177.027V20H172.581ZM179.069 14.5455L180.376 16.7756L181.682 14.5455H182.648L180.887 17.2727L182.648 20H181.682L180.376 17.8835L179.069 20H178.103L179.836 17.2727L178.103 14.5455H179.069ZM183.844 22.0455V14.5455H184.654V15.4119H184.753C184.815 15.3172 184.9 15.1965 185.009 15.0497C185.12 14.9006 185.279 14.768 185.485 14.652C185.693 14.5336 185.975 14.4744 186.33 14.4744C186.789 14.4744 187.194 14.5893 187.544 14.8189C187.895 15.0485 188.168 15.3741 188.365 15.7955C188.561 16.2169 188.66 16.714 188.66 17.2869C188.66 17.8646 188.561 18.3653 188.365 18.7891C188.168 19.2105 187.896 19.5372 187.548 19.7692C187.2 19.9988 186.799 20.1136 186.344 20.1136C185.994 20.1136 185.713 20.0556 185.503 19.9396C185.292 19.8213 185.13 19.6875 185.016 19.5384C184.902 19.3868 184.815 19.2614 184.753 19.1619H184.682V22.0455H183.844ZM184.668 17.2727C184.668 17.6847 184.728 18.0481 184.849 18.3629C184.97 18.6754 185.146 18.9205 185.378 19.098C185.61 19.2732 185.894 19.3608 186.231 19.3608C186.581 19.3608 186.873 19.2685 187.108 19.0838C187.344 18.8968 187.522 18.6458 187.64 18.331C187.761 18.0137 187.821 17.661 187.821 17.2727C187.821 16.8892 187.762 16.5436 187.644 16.2358C187.528 15.9257 187.352 15.6806 187.115 15.5007C186.88 15.3184 186.586 15.2273 186.231 15.2273C185.89 15.2273 185.603 15.3137 185.371 15.4865C185.139 15.657 184.964 15.8961 184.846 16.2038C184.727 16.5092 184.668 16.8655 184.668 17.2727ZM192.225 20.1136C191.699 20.1136 191.246 19.9976 190.865 19.7656C190.486 19.5312 190.194 19.2045 189.988 18.7855C189.784 18.3641 189.682 17.8741 189.682 17.3153C189.682 16.7566 189.784 16.2642 189.988 15.8381C190.194 15.4096 190.48 15.0758 190.847 14.8366C191.216 14.5952 191.647 14.4744 192.14 14.4744C192.424 14.4744 192.704 14.5218 192.981 14.6165C193.258 14.7112 193.51 14.8651 193.738 15.0781C193.965 15.2888 194.146 15.5682 194.281 15.9162C194.416 16.2642 194.483 16.6927 194.483 17.2017V17.5568H190.279V16.8324H193.631C193.631 16.5246 193.57 16.25 193.446 16.0085C193.326 15.767 193.153 15.5765 192.928 15.4368C192.705 15.2971 192.443 15.2273 192.14 15.2273C191.806 15.2273 191.517 15.3101 191.273 15.4759C191.032 15.6392 190.846 15.8523 190.716 16.1151C190.585 16.3778 190.52 16.6596 190.52 16.9602V17.4432C190.52 17.8551 190.591 18.2043 190.733 18.4908C190.878 18.7749 191.078 18.9915 191.334 19.1406C191.589 19.2874 191.886 19.3608 192.225 19.3608C192.445 19.3608 192.644 19.33 192.821 19.2685C193.001 19.2045 193.156 19.1098 193.287 18.9844C193.417 18.8565 193.517 18.6979 193.589 18.5085L194.398 18.7358C194.313 19.0104 194.17 19.2519 193.968 19.4602C193.767 19.6662 193.519 19.8272 193.223 19.9432C192.927 20.0568 192.594 20.1136 192.225 20.1136ZM195.758 20V14.5455H196.568V15.3693H196.625C196.724 15.0994 196.904 14.8804 197.165 14.7124C197.425 14.5443 197.718 14.4602 198.045 14.4602C198.107 14.4602 198.184 14.4614 198.276 14.4638C198.368 14.4661 198.438 14.4697 198.486 14.4744V15.3267C198.457 15.3196 198.392 15.3089 198.29 15.2947C198.191 15.2782 198.085 15.2699 197.974 15.2699C197.709 15.2699 197.472 15.3255 197.264 15.4368C197.058 15.5457 196.895 15.6972 196.774 15.8913C196.656 16.0831 196.596 16.3021 196.596 16.5483V20H195.758ZM202.193 14.5455V15.2557H199.366V14.5455H202.193ZM200.19 13.2386H201.028V18.4375C201.028 18.6742 201.062 18.8518 201.131 18.9702C201.202 19.0862 201.292 19.1643 201.401 19.2045C201.512 19.2424 201.629 19.2614 201.753 19.2614C201.845 19.2614 201.921 19.2566 201.98 19.2472C202.039 19.2353 202.086 19.2259 202.122 19.2188L202.292 19.9716C202.236 19.9929 202.156 20.0142 202.054 20.0355C201.953 20.0592 201.824 20.071 201.667 20.071C201.431 20.071 201.199 20.0201 200.971 19.9183C200.746 19.8165 200.559 19.6615 200.41 19.4531C200.263 19.2448 200.19 18.982 200.19 18.6648V13.2386ZM212.232 15H211.351C211.299 14.7467 211.208 14.5241 211.078 14.3324C210.95 14.1406 210.794 13.9796 210.609 13.8494C210.427 13.7169 210.224 13.6174 210.002 13.5511C209.779 13.4848 209.547 13.4517 209.306 13.4517C208.866 13.4517 208.467 13.563 208.109 13.7855C207.754 14.008 207.471 14.3359 207.26 14.7692C207.052 15.2024 206.948 15.7339 206.948 16.3636C206.948 16.9934 207.052 17.5249 207.26 17.9581C207.471 18.3913 207.754 18.7192 208.109 18.9418C208.467 19.1643 208.866 19.2756 209.306 19.2756C209.547 19.2756 209.779 19.2424 210.002 19.1761C210.224 19.1098 210.427 19.0116 210.609 18.8814C210.794 18.7488 210.95 18.5866 211.078 18.3949C211.208 18.2008 211.299 17.9782 211.351 17.7273H212.232C212.166 18.099 212.045 18.4316 211.87 18.7251C211.695 19.0187 211.477 19.2685 211.216 19.4744C210.956 19.678 210.664 19.8331 210.339 19.9396C210.017 20.0462 209.673 20.0994 209.306 20.0994C208.686 20.0994 208.134 19.9479 207.651 19.6449C207.168 19.3419 206.788 18.911 206.511 18.3523C206.234 17.7936 206.096 17.1307 206.096 16.3636C206.096 15.5966 206.234 14.9337 206.511 14.375C206.788 13.8163 207.168 13.3854 207.651 13.0824C208.134 12.7794 208.686 12.6278 209.306 12.6278C209.673 12.6278 210.017 12.6811 210.339 12.7876C210.664 12.8942 210.956 13.0504 211.216 13.2564C211.477 13.46 211.695 13.7086 211.87 14.0021C212.045 14.2933 212.166 14.6259 212.232 15ZM214.38 16.7188V20H213.541V12.7273H214.38V15.3977H214.451C214.578 15.116 214.77 14.8923 215.026 14.7266C215.284 14.5585 215.627 14.4744 216.056 14.4744C216.427 14.4744 216.753 14.549 217.032 14.6982C217.312 14.8449 217.528 15.071 217.682 15.3764C217.838 15.6795 217.916 16.0653 217.916 16.5341V20H217.078V16.5909C217.078 16.1577 216.966 15.8227 216.741 15.5859C216.518 15.3468 216.21 15.2273 215.814 15.2273C215.54 15.2273 215.293 15.2853 215.076 15.4013C214.86 15.5173 214.69 15.6866 214.564 15.9091C214.441 16.1316 214.38 16.4015 214.38 16.7188ZM219.45 20V14.5455H220.259V15.3693H220.316C220.416 15.0994 220.595 14.8804 220.856 14.7124C221.116 14.5443 221.41 14.4602 221.737 14.4602C221.798 14.4602 221.875 14.4614 221.967 14.4638C222.06 14.4661 222.13 14.4697 222.177 14.4744V15.3267C222.149 15.3196 222.083 15.3089 221.982 15.2947C221.882 15.2782 221.777 15.2699 221.666 15.2699C221.4 15.2699 221.164 15.3255 220.955 15.4368C220.749 15.5457 220.586 15.6972 220.465 15.8913C220.347 16.0831 220.288 16.3021 220.288 16.5483V20H219.45ZM225.22 20.1136C224.728 20.1136 224.296 19.9964 223.924 19.7621C223.555 19.5277 223.266 19.1998 223.058 18.7784C222.852 18.357 222.749 17.8646 222.749 17.3011C222.749 16.733 222.852 16.237 223.058 15.8132C223.266 15.3894 223.555 15.0604 223.924 14.826C224.296 14.5916 224.728 14.4744 225.22 14.4744C225.713 14.4744 226.144 14.5916 226.513 14.826C226.885 15.0604 227.173 15.3894 227.379 15.8132C227.588 16.237 227.692 16.733 227.692 17.3011C227.692 17.8646 227.588 18.357 227.379 18.7784C227.173 19.1998 226.885 19.5277 226.513 19.7621C226.144 19.9964 225.713 20.1136 225.22 20.1136ZM225.22 19.3608C225.594 19.3608 225.902 19.2649 226.144 19.0732C226.385 18.8814 226.564 18.6293 226.68 18.3168C226.796 18.0043 226.854 17.6657 226.854 17.3011C226.854 16.9366 226.796 16.5968 226.68 16.282C226.564 15.9671 226.385 15.7126 226.144 15.5185C225.902 15.3243 225.594 15.2273 225.22 15.2273C224.846 15.2273 224.538 15.3243 224.297 15.5185C224.055 15.7126 223.877 15.9671 223.761 16.282C223.645 16.5968 223.587 16.9366 223.587 17.3011C223.587 17.6657 223.645 18.0043 223.761 18.3168C223.877 18.6293 224.055 18.8814 224.297 19.0732C224.538 19.2649 224.846 19.3608 225.22 19.3608ZM228.971 20V14.5455H229.781V15.3977H229.852C229.965 15.1065 230.149 14.8804 230.402 14.7195C230.656 14.5561 230.96 14.4744 231.315 14.4744C231.675 14.4744 231.974 14.5561 232.213 14.7195C232.455 14.8804 232.643 15.1065 232.778 15.3977H232.835C232.974 15.116 233.184 14.8923 233.463 14.7266C233.743 14.5585 234.078 14.4744 234.468 14.4744C234.956 14.4744 235.355 14.6271 235.665 14.9325C235.975 15.2356 236.13 15.7079 236.13 16.3494V20H235.292V16.3494C235.292 15.947 235.182 15.6593 234.962 15.4865C234.742 15.3137 234.483 15.2273 234.184 15.2273C233.801 15.2273 233.504 15.3433 233.293 15.5753C233.082 15.8049 232.977 16.0961 232.977 16.4489V20H232.125V16.2642C232.125 15.9541 232.024 15.7043 231.823 15.5149C231.621 15.3232 231.362 15.2273 231.045 15.2273C230.827 15.2273 230.624 15.2853 230.434 15.4013C230.247 15.5173 230.096 15.6783 229.98 15.8842C229.866 16.0878 229.809 16.3234 229.809 16.5909V20H228.971ZM239.949 20.1136C239.424 20.1136 238.971 19.9976 238.589 19.7656C238.211 19.5312 237.918 19.2045 237.712 18.7855C237.509 18.3641 237.407 17.8741 237.407 17.3153C237.407 16.7566 237.509 16.2642 237.712 15.8381C237.918 15.4096 238.205 15.0758 238.572 14.8366C238.941 14.5952 239.372 14.4744 239.864 14.4744C240.148 14.4744 240.429 14.5218 240.706 14.6165C240.983 14.7112 241.235 14.8651 241.462 15.0781C241.69 15.2888 241.871 15.5682 242.006 15.9162C242.141 16.2642 242.208 16.6927 242.208 17.2017V17.5568H238.003V16.8324H241.356C241.356 16.5246 241.294 16.25 241.171 16.0085C241.05 15.767 240.878 15.5765 240.653 15.4368C240.43 15.2971 240.167 15.2273 239.864 15.2273C239.53 15.2273 239.242 15.3101 238.998 15.4759C238.756 15.6392 238.57 15.8523 238.44 16.1151C238.31 16.3778 238.245 16.6596 238.245 16.9602V17.4432C238.245 17.8551 238.316 18.2043 238.458 18.4908C238.602 18.7749 238.802 18.9915 239.058 19.1406C239.314 19.2874 239.611 19.3608 239.949 19.3608C240.17 19.3608 240.369 19.33 240.546 19.2685C240.726 19.2045 240.881 19.1098 241.011 18.9844C241.141 18.8565 241.242 18.6979 241.313 18.5085L242.123 18.7358C242.038 19.0104 241.894 19.2519 241.693 19.4602C241.492 19.6662 241.243 19.8272 240.947 19.9432C240.651 20.0568 240.319 20.1136 239.949 20.1136ZM243.597 20V12.7273H244.435V15.4119H244.506C244.567 15.3172 244.652 15.1965 244.761 15.0497C244.873 14.9006 245.031 14.768 245.237 14.652C245.445 14.5336 245.727 14.4744 246.082 14.4744C246.542 14.4744 246.946 14.5893 247.297 14.8189C247.647 15.0485 247.921 15.3741 248.117 15.7955C248.314 16.2169 248.412 16.714 248.412 17.2869C248.412 17.8646 248.314 18.3653 248.117 18.7891C247.921 19.2105 247.648 19.5372 247.3 19.7692C246.952 19.9988 246.551 20.1136 246.097 20.1136C245.746 20.1136 245.466 20.0556 245.255 19.9396C245.044 19.8213 244.882 19.6875 244.768 19.5384C244.655 19.3868 244.567 19.2614 244.506 19.1619H244.406V20H243.597ZM244.42 17.2727C244.42 17.6847 244.481 18.0481 244.601 18.3629C244.722 18.6754 244.899 18.9205 245.131 19.098C245.363 19.2732 245.647 19.3608 245.983 19.3608C246.333 19.3608 246.626 19.2685 246.86 19.0838C247.097 18.8968 247.274 18.6458 247.393 18.331C247.513 18.0137 247.574 17.661 247.574 17.2727C247.574 16.8892 247.515 16.5436 247.396 16.2358C247.28 15.9257 247.104 15.6806 246.867 15.5007C246.633 15.3184 246.338 15.2273 245.983 15.2273C245.642 15.2273 245.355 15.3137 245.123 15.4865C244.891 15.657 244.716 15.8961 244.598 16.2038C244.48 16.5092 244.42 16.8655 244.42 17.2727ZM251.91 20.1136C251.417 20.1136 250.985 19.9964 250.614 19.7621C250.244 19.5277 249.955 19.1998 249.747 18.7784C249.541 18.357 249.438 17.8646 249.438 17.3011C249.438 16.733 249.541 16.237 249.747 15.8132C249.955 15.3894 250.244 15.0604 250.614 14.826C250.985 14.5916 251.417 14.4744 251.91 14.4744C252.402 14.4744 252.833 14.5916 253.202 14.826C253.574 15.0604 253.863 15.3894 254.069 15.8132C254.277 16.237 254.381 16.733 254.381 17.3011C254.381 17.8646 254.277 18.357 254.069 18.7784C253.863 19.1998 253.574 19.5277 253.202 19.7621C252.833 19.9964 252.402 20.1136 251.91 20.1136ZM251.91 19.3608C252.284 19.3608 252.592 19.2649 252.833 19.0732C253.074 18.8814 253.253 18.6293 253.369 18.3168C253.485 18.0043 253.543 17.6657 253.543 17.3011C253.543 16.9366 253.485 16.5968 253.369 16.282C253.253 15.9671 253.074 15.7126 252.833 15.5185C252.592 15.3243 252.284 15.2273 251.91 15.2273C251.536 15.2273 251.228 15.3243 250.986 15.5185C250.745 15.7126 250.566 15.9671 250.45 16.282C250.334 16.5968 250.276 16.9366 250.276 17.3011C250.276 17.6657 250.334 18.0043 250.45 18.3168C250.566 18.6293 250.745 18.8814 250.986 19.0732C251.228 19.2649 251.536 19.3608 251.91 19.3608ZM257.877 20.1136C257.384 20.1136 256.952 19.9964 256.58 19.7621C256.211 19.5277 255.922 19.1998 255.714 18.7784C255.508 18.357 255.405 17.8646 255.405 17.3011C255.405 16.733 255.508 16.237 255.714 15.8132C255.922 15.3894 256.211 15.0604 256.58 14.826C256.952 14.5916 257.384 14.4744 257.877 14.4744C258.369 14.4744 258.8 14.5916 259.169 14.826C259.541 15.0604 259.83 15.3894 260.036 15.8132C260.244 16.237 260.348 16.733 260.348 17.3011C260.348 17.8646 260.244 18.357 260.036 18.7784C259.83 19.1998 259.541 19.5277 259.169 19.7621C258.8 19.9964 258.369 20.1136 257.877 20.1136ZM257.877 19.3608C258.251 19.3608 258.558 19.2649 258.8 19.0732C259.041 18.8814 259.22 18.6293 259.336 18.3168C259.452 18.0043 259.51 17.6657 259.51 17.3011C259.51 16.9366 259.452 16.5968 259.336 16.282C259.22 15.9671 259.041 15.7126 258.8 15.5185C258.558 15.3243 258.251 15.2273 257.877 15.2273C257.502 15.2273 257.195 15.3243 256.953 15.5185C256.712 15.7126 256.533 15.9671 256.417 16.282C256.301 16.5968 256.243 16.9366 256.243 17.3011C256.243 17.6657 256.301 18.0043 256.417 18.3168C256.533 18.6293 256.712 18.8814 256.953 19.0732C257.195 19.2649 257.502 19.3608 257.877 19.3608ZM262.409 18.0114L262.394 16.9744H262.565L264.951 14.5455H265.988L263.446 17.1165H263.375L262.409 18.0114ZM261.627 20V12.7273H262.465V20H261.627ZM265.093 20L262.963 17.3011L263.559 16.7188L266.159 20H265.093Z" fill="white"/>
<path d="M38.2088 20V12.7273H40.7514C41.258 12.7273 41.6759 12.8149 42.005 12.9901C42.334 13.1629 42.5791 13.3961 42.7401 13.6896C42.901 13.9808 42.9815 14.304 42.9815 14.6591C42.9815 14.9716 42.9259 15.2296 42.8146 15.4332C42.7057 15.6368 42.5613 15.7978 42.3814 15.9162C42.2038 16.0346 42.0109 16.1222 41.8026 16.179V16.25C42.0251 16.2642 42.2488 16.3423 42.4737 16.4844C42.6986 16.6264 42.8868 16.83 43.0384 17.0952C43.1899 17.3603 43.2656 17.6847 43.2656 18.0682C43.2656 18.4328 43.1828 18.7607 43.017 19.0518C42.8513 19.343 42.5897 19.5739 42.2322 19.7443C41.8748 19.9148 41.4096 20 40.8366 20H38.2088ZM39.0895 19.2188H40.8366C41.4119 19.2188 41.8203 19.1075 42.0618 18.8849C42.3056 18.66 42.4276 18.3878 42.4276 18.0682C42.4276 17.822 42.3648 17.5947 42.2393 17.3864C42.1139 17.1757 41.9351 17.0076 41.7031 16.8821C41.4711 16.7543 41.1965 16.6903 40.8793 16.6903H39.0895V19.2188ZM39.0895 15.9233H40.723C40.9882 15.9233 41.2273 15.8712 41.4403 15.767C41.6558 15.6629 41.8262 15.5161 41.9517 15.3267C42.0795 15.1373 42.1435 14.9148 42.1435 14.6591C42.1435 14.3395 42.0322 14.0684 41.8097 13.8459C41.5871 13.621 41.2344 13.5085 40.7514 13.5085H39.0895V15.9233ZM45.011 20H44.0877L46.7582 12.7273H47.6673L50.3377 20H49.4144L47.2411 13.8778H47.1843L45.011 20ZM45.3519 17.1591H49.0735V17.9403H45.3519V17.1591ZM56.981 15H56.1003C56.0482 14.7467 55.9571 14.5241 55.8269 14.3324C55.699 14.1406 55.5428 13.9796 55.3581 13.8494C55.1758 13.7169 54.9734 13.6174 54.7509 13.5511C54.5284 13.4848 54.2963 13.4517 54.0549 13.4517C53.6145 13.4517 53.2156 13.563 52.8581 13.7855C52.503 14.008 52.2201 14.3359 52.0094 14.7692C51.8011 15.2024 51.6969 15.7339 51.6969 16.3636C51.6969 16.9934 51.8011 17.5249 52.0094 17.9581C52.2201 18.3913 52.503 18.7192 52.8581 18.9418C53.2156 19.1643 53.6145 19.2756 54.0549 19.2756C54.2963 19.2756 54.5284 19.2424 54.7509 19.1761C54.9734 19.1098 55.1758 19.0116 55.3581 18.8814C55.5428 18.7488 55.699 18.5866 55.8269 18.3949C55.9571 18.2008 56.0482 17.9782 56.1003 17.7273H56.981C56.9147 18.099 56.794 18.4316 56.6188 18.7251C56.4436 19.0187 56.2258 19.2685 55.9654 19.4744C55.705 19.678 55.4126 19.8331 55.0882 19.9396C54.7663 20.0462 54.4218 20.0994 54.0549 20.0994C53.4346 20.0994 52.883 19.9479 52.4 19.6449C51.9171 19.3419 51.5371 18.911 51.2601 18.3523C50.9831 17.7936 50.8446 17.1307 50.8446 16.3636C50.8446 15.5966 50.9831 14.9337 51.2601 14.375C51.5371 13.8163 51.9171 13.3854 52.4 13.0824C52.883 12.7794 53.4346 12.6278 54.0549 12.6278C54.4218 12.6278 54.7663 12.6811 55.0882 12.7876C55.4126 12.8942 55.705 13.0504 55.9654 13.2564C56.2258 13.46 56.4436 13.7086 56.6188 14.0021C56.794 14.2933 56.9147 14.6259 56.981 15ZM61.2166 20V12.7273H62.0973V19.2188H65.478V20H61.2166ZM66.8416 20V12.7273H67.7223V19.2188H71.103V20H66.8416ZM78.0357 15H77.155C77.1029 14.7467 77.0118 14.5241 76.8816 14.3324C76.7537 14.1406 76.5975 13.9796 76.4128 13.8494C76.2305 13.7169 76.0281 13.6174 75.8056 13.5511C75.583 13.4848 75.351 13.4517 75.1096 13.4517C74.6692 13.4517 74.2703 13.563 73.9128 13.7855C73.5577 14.008 73.2748 14.3359 73.0641 14.7692C72.8558 15.2024 72.7516 15.7339 72.7516 16.3636C72.7516 16.9934 72.8558 17.5249 73.0641 17.9581C73.2748 18.3913 73.5577 18.7192 73.9128 18.9418C74.2703 19.1643 74.6692 19.2756 75.1096 19.2756C75.351 19.2756 75.583 19.2424 75.8056 19.1761C76.0281 19.1098 76.2305 19.0116 76.4128 18.8814C76.5975 18.7488 76.7537 18.5866 76.8816 18.3949C77.0118 18.2008 77.1029 17.9782 77.155 17.7273H78.0357C77.9694 18.099 77.8487 18.4316 77.6735 18.7251C77.4983 19.0187 77.2805 19.2685 77.0201 19.4744C76.7596 19.678 76.4673 19.8331 76.1429 19.9396C75.821 20.0462 75.4765 20.0994 75.1096 20.0994C74.4893 20.0994 73.9377 19.9479 73.4547 19.6449C72.9718 19.3419 72.5918 18.911 72.3148 18.3523C72.0378 17.7936 71.8993 17.1307 71.8993 16.3636C71.8993 15.5966 72.0378 14.9337 72.3148 14.375C72.5918 13.8163 72.9718 13.3854 73.4547 13.0824C73.9377 12.7794 74.4893 12.6278 75.1096 12.6278C75.4765 12.6278 75.821 12.6811 76.1429 12.7876C76.4673 12.8942 76.7596 13.0504 77.0201 13.2564C77.2805 13.46 77.4983 13.7086 77.6735 14.0021C77.8487 14.2933 77.9694 14.6259 78.0357 15ZM79.4588 20V12.7273H83.848V13.5085H80.3395V15.9659H83.6207V16.7472H80.3395V19.2188H83.9048V20H79.4588ZM87.8928 12.3864L85.549 21.0938H84.782L87.1257 12.3864H87.8928ZM94.7669 12.7273V20H93.9146L89.9515 14.2898H89.8805V20H88.9998V12.7273H89.8521L93.8294 18.4517H93.9004V12.7273H94.7669ZM100.506 14.5455C100.464 14.1856 100.291 13.9062 99.9879 13.7074C99.6849 13.5085 99.3132 13.4091 98.8729 13.4091C98.5509 13.4091 98.2692 13.4612 98.0277 13.5653C97.7886 13.6695 97.6016 13.8127 97.4666 13.995C97.334 14.1773 97.2678 14.3845 97.2678 14.6165C97.2678 14.8106 97.3139 14.9775 97.4062 15.1172C97.5009 15.2545 97.6217 15.3693 97.7685 15.4616C97.9152 15.5516 98.0691 15.6262 98.2301 15.6854C98.3911 15.7422 98.5391 15.7884 98.674 15.8239L99.4126 16.0227C99.602 16.0724 99.8127 16.1411 100.045 16.2287C100.279 16.3163 100.503 16.4358 100.716 16.5874C100.931 16.7365 101.109 16.9283 101.249 17.1626C101.388 17.397 101.458 17.6847 101.458 18.0256C101.458 18.4186 101.355 18.7737 101.149 19.0909C100.946 19.4081 100.647 19.6603 100.254 19.8473C99.8636 20.0343 99.389 20.1278 98.8303 20.1278C98.3094 20.1278 97.8584 20.0438 97.4773 19.8757C97.0985 19.7076 96.8002 19.4732 96.5824 19.1726C96.367 18.8719 96.245 18.5227 96.2166 18.125H97.1257C97.1494 18.3996 97.2417 18.6269 97.4027 18.8068C97.5661 18.9844 97.772 19.117 98.0206 19.2045C98.2715 19.2898 98.5414 19.3324 98.8303 19.3324C99.1664 19.3324 99.4683 19.2779 99.7358 19.169C100.003 19.0578 100.215 18.9039 100.371 18.7074C100.528 18.5085 100.606 18.2765 100.606 18.0114C100.606 17.7699 100.538 17.5734 100.403 17.4219C100.268 17.2704 100.091 17.1473 99.8707 17.0526C99.6506 16.9579 99.4126 16.875 99.157 16.804L98.2621 16.5483C97.6939 16.3849 97.2441 16.1518 96.9126 15.8487C96.5812 15.5457 96.4155 15.1491 96.4155 14.6591C96.4155 14.2519 96.5256 13.8968 96.7457 13.5938C96.9683 13.2884 97.2666 13.0516 97.6406 12.8835C98.017 12.7131 98.4373 12.6278 98.9013 12.6278C99.37 12.6278 99.7867 12.7119 100.151 12.88C100.516 13.0457 100.805 13.273 101.018 13.5618C101.233 13.8506 101.347 14.1785 101.359 14.5455H100.506ZM103.787 12.7273V20H102.906V12.7273H103.787Z" fill="white"/>
</svg>
